<?xml version="1.0" encoding="UTF-8"?>
<svg id="Layer_1" data-name="Layer 1" xmlns="http://www.w3.org/2000/svg" width="236.18" height="271.49" viewBox="0 0 236.18 271.49">
  <defs>
    <style>
      .cls-1 {
        letter-spacing: -.04em;
      }

      .cls-1, .cls-2, .cls-3, .cls-4 {
        fill: #f5a036;
      }

      .cls-5 {
        fill: #f9cfd2;
      }

      .cls-6, .cls-7 {
        fill: #f3733a;
      }

      .cls-8 {
        fill: #3700ec;
      }

      .cls-3 {
        letter-spacing: 0em;
      }

      .cls-9 {
        font-family: Bree-Regular, Bree;
        font-size: 26.59px;
      }

      .cls-4 {
        letter-spacing: 0em;
      }

      .cls-7 {
        letter-spacing: -.02em;
      }
    </style>
  </defs>
  <circle class="cls-5" cx="118.09" cy="118.09" r="118.09"/>
  <g>
    <path class="cls-2" d="M123.57,179.03c-.1-.1-.21-.91-.31-1.01v-.12c.94-.87,5.08-5.05,12.4-12.54,5.48-5.61,10.94-11.23,16.34-16.92,4.99-5.26,11.23-9.62,18.38-11.59,1.1-.3,2.22-.55,3.35-.75,3.36-.58,6.89-.65,10.09,.53,3.2,1.18,6.01,3.77,6.78,7.09,.62,2.65-.16,5.58-2.01,7.58-1.85,2-4.72,2.99-7.41,2.58-3.41-.53-6.15-3.07-9.41-4.2-5.17-1.79-9.58,.55-13.39,3.86-4.88,4.24-9.36,9.07-13.98,13.59-1.46,1.43-2.92,2.86-4.39,4.28-.89,.87-1.17,.87-.41,1.9,.72,.98,1.63,3.99,2.43,4.91"/>
    <path class="cls-8" d="M86.02,102.14c-.02-4.25-.04-8.5-.06-12.75-.02-3.97-.07-8.09-1.75-11.69-1.68-3.6-5.47-6.54-9.39-5.91-1.82,.29-3.48,1.3-5.31,1.55s-4.11-.74-4.17-2.59c-.07-1.82,1.93-2.92,3.62-3.6,10.55-4.19,21.1-8.39,31.65-12.58,1.03-.41,2.08-.82,3.18-.93,1.1-.1,2.29,.15,3.09,.92,1.54,1.49,.8,3.36,.79,5.18-.07,11.06-.12,22.35-.15,33.5-.03,12.54-.04,19.99-.04,22.34,0,5.52,.05,17.08,.16,34.69,.11,17.6,.16,26.86,.16,27.77-6.77,0-13.51-.02-20.27,.25-.53,.02-1.16-.01-1.44-.47-.14-.24-.14-.54-.13-.82,.02-.92,.05-1.83,.07-2.75,.63-24.06,.1-48.07-.02-72.14Zm83.64,70.55c1.6,1.83,3.2,3.66,4.81,5.48,4.37,4.98,8.78,10.01,14.14,13.9,5.36,3.89,11.83,6.6,18.45,6.32,1.1-.05,2.23-.17,3.29,.14,1.06,.32,2.04,1.23,2.01,2.33-.04,1.93-2.62,2.5-4.55,2.49-18.73-.15-37.46-.31-56.18-.46-1.07,0-2.17-.02-3.15-.46-.98-.43-1.8-1.4-1.72-2.47,.09-1.26,1.34-2.11,2.55-2.49,1.21-.38,2.53-.5,3.57-1.21,1.64-1.11,2.1-3.42,1.62-5.34s-1.71-3.56-2.9-5.13c-7.79-10.25-15.58-20.5-23.37-30.75-4.92-6.48-11.29-11.87-17.18-17.49-.14-.13-.28-.27-.42-.4v-.16c1.29-1.18,6.92-6.87,16.9-17.08,7.47-7.64,14.91-15.3,22.26-23.05,6.8-7.17,15.3-13.11,25.04-15.79,1.51-.41,3.03-.76,4.57-1.02,4.58-.79,9.39-.89,13.75,.72,4.36,1.6,8.19,5.14,9.24,9.66,.84,3.61-.22,7.61-2.74,10.33-2.52,2.72-6.43,4.08-10.09,3.51-4.65-.72-8.38-4.19-12.82-5.72-7.05-2.43-13.05,.75-18.24,5.26-6.65,5.78-12.75,12.36-19.05,18.52-1.99,1.95-3.98,3.89-5.98,5.84-1.22,1.18-1.59,1.18-.55,2.58,.98,1.33,2.22,2.54,3.31,3.78,4.25,4.85,8.5,9.7,12.75,14.55,6.9,7.87,13.8,15.74,20.69,23.61Z"/>
  </g>
  <text class="cls-9" transform="translate(34.97 264.01)"><tspan class="cls-6" x="0" y="0">Krys</tspan><tspan class="cls-7" x="50.82" y="0">t</tspan><tspan class="cls-6" x="59.75" y="0">al</tspan><tspan x="82.67" y="0"> </tspan><tspan class="cls-1" x="88.15" y="0">F</tspan><tspan class="cls-2" x="100.81" y="0">ur</tspan><tspan class="cls-3" x="125.11" y="0">l</tspan><tspan class="cls-4" x="133.49" y="0">ani</tspan></text>
</svg>